M48
;Layer_Color=9474304
;FILE_FORMAT=4:2
METRIC,LZ
;TYPE=PLATED
T1F00S00C0.70
T2F00S00C0.71
T3F00S00C0.81
T4F00S00C0.90
T5F00S00C1.00
T6F00S00C1.02
T7F00S00C1.05
T8F00S00C1.10
T9F00S00C1.30
T10F00S00C2.00
T11F00S00C3.00
T12F00S00C3.10
;TYPE=NON_PLATED
T13F00S00C3.20
%
T01
X009123Y007
X009377
T02
X00125Y0014
X00905Y0132
T03
X0007Y00665
Y00685
Y00705
Y00845
Y00865
Y00885
T04
X0092Y010442
Y010696
Y01095
T05
X009095Y003511
Y003765
Y004019
Y004527
Y004781
Y005035
Y005289
T06
X001825Y001603
Y001857
Y002111
Y002365
Y002619
Y002873
Y003127
Y003381
Y003635
Y003889
X002079
Y003635
Y003381
Y003127
Y002873
Y002619
Y002365
Y002111
Y001857
Y001603
X007921Y001601
Y001855
Y002109
Y002363
Y002617
Y002871
Y003125
Y003379
Y003633
Y003887
X008175
Y003633
Y003379
Y003125
Y002871
Y002617
Y002363
Y002109
Y001855
Y001601
Y004141
Y004395
Y004649
Y004903
Y005157
Y005411
Y005665
Y005919
Y006173
Y006427
Y006681
Y006935
Y007189
Y007443
Y007697
X007921
Y007443
Y007189
Y006935
Y006681
Y006427
Y006173
Y005919
Y005665
Y005411
Y005157
Y004903
Y004649
Y004395
Y004141
X002079Y004143
Y004397
Y004651
Y004905
Y005159
Y005413
Y005667
Y005921
Y006175
Y006429
Y006683
Y006937
Y007191
Y007445
Y007699
X001825
Y007445
Y007191
Y006937
Y006683
Y006429
Y006175
Y005921
Y005667
Y005413
Y005159
Y004905
Y004651
Y004397
Y004143
Y007953
Y008207
Y008461
Y008715
Y008969
Y009223
Y009477
Y009731
Y009985
Y010239
Y010493
X002079
Y010239
Y009985
Y009731
Y009477
Y009223
Y008969
Y008715
Y008461
Y008207
Y007953
X007921Y007951
Y008205
Y008459
Y008713
Y008967
Y009221
Y009475
Y009729
Y009983
Y010237
Y010491
X008175
Y010237
Y009983
Y009729
Y009475
Y009221
Y008967
Y008713
Y008459
Y008205
Y007951
T07
X006246Y014258
X006522
X0068
X007076
X007354
X007215Y014542
X006938
X006661
X006384
X003638Y014534
X003362
X003084
X002808
X002669Y01425
X002946
X003223
X0035
X003777
T08
X00915Y007838
Y008092
Y008346
Y0086
Y008854
Y009108
T09
X0007Y003825
Y004175
Y0108
Y01115
Y012525
Y012875
T10
X00025Y00025
X00975
Y01475
X00025
T11
X00925Y00124
Y00174
T12
X008049Y0144
X00555
X004472Y014392
X001974
T13
X002714Y003254
X007286
X005889Y005667
X002587Y010874
X007413Y010747
M30
