G04*
G04 #@! TF.GenerationSoftware,Altium Limited,Altium Designer,22.8.2 (66)*
G04*
G04 Layer_Color=16711935*
%FSLAX42Y42*%
%MOMM*%
G71*
G04*
G04 #@! TF.SameCoordinates,8E390A5F-EF31-4BF6-9372-B9111DFB767B*
G04*
G04*
G04 #@! TF.FilePolarity,Negative*
G04*
G01*
G75*
%ADD18R,1.73X1.73*%
%ADD19C,1.73*%
%ADD20C,3.40*%
%ADD21C,2.15*%
%ADD22C,1.71*%
%ADD23R,1.71X1.71*%
%ADD24R,1.41X1.41*%
%ADD25C,1.41*%
%ADD26C,1.85*%
%ADD27C,3.20*%
%ADD28C,1.78*%
%ADD29R,1.78X1.78*%
%ADD30C,4.32*%
%ADD31R,1.52X1.52*%
%ADD32C,1.52*%
%ADD33C,1.88*%
%ADD34C,4.20*%
%ADD35R,4.20X4.20*%
%ADD36C,1.47*%
D18*
X1825Y10493D02*
D03*
X7921Y10491D02*
D03*
D19*
X2079Y10493D02*
D03*
X1825Y10239D02*
D03*
X2079D02*
D03*
X1825Y9985D02*
D03*
X2079D02*
D03*
X1825Y9731D02*
D03*
X2079D02*
D03*
X1825Y9477D02*
D03*
X2079D02*
D03*
X1825Y9223D02*
D03*
X2079D02*
D03*
X1825Y8969D02*
D03*
X2079D02*
D03*
X1825Y8715D02*
D03*
X2079D02*
D03*
X1825Y8461D02*
D03*
X2079D02*
D03*
X1825Y8207D02*
D03*
X2079D02*
D03*
X1825Y7953D02*
D03*
X2079D02*
D03*
X1825Y7699D02*
D03*
X2079D02*
D03*
X1825Y7445D02*
D03*
X2079D02*
D03*
X1825Y7191D02*
D03*
X2079D02*
D03*
X1825Y6937D02*
D03*
X2079D02*
D03*
X1825Y6683D02*
D03*
X2079D02*
D03*
X1825Y6429D02*
D03*
X2079D02*
D03*
X1825Y6175D02*
D03*
X2079D02*
D03*
X1825Y5921D02*
D03*
X2079D02*
D03*
X1825Y5667D02*
D03*
X2079D02*
D03*
X1825Y5413D02*
D03*
X2079D02*
D03*
X1825Y5159D02*
D03*
X2079D02*
D03*
X1825Y4905D02*
D03*
X2079D02*
D03*
X1825Y4651D02*
D03*
X2079D02*
D03*
X1825Y4397D02*
D03*
X2079D02*
D03*
X1825Y4143D02*
D03*
X2079D02*
D03*
X1825Y3889D02*
D03*
X2079D02*
D03*
X1825Y3635D02*
D03*
X2079D02*
D03*
X1825Y3381D02*
D03*
X2079D02*
D03*
X1825Y3127D02*
D03*
X2079D02*
D03*
X1825Y2873D02*
D03*
X2079D02*
D03*
X1825Y2619D02*
D03*
X2079D02*
D03*
X1825Y2365D02*
D03*
X2079D02*
D03*
X1825Y2111D02*
D03*
X2079D02*
D03*
X1825Y1857D02*
D03*
X2079D02*
D03*
X8175Y10491D02*
D03*
X1825Y1603D02*
D03*
X2079D02*
D03*
X7921Y10237D02*
D03*
X8175D02*
D03*
X7921Y9983D02*
D03*
X8175D02*
D03*
X7921Y9729D02*
D03*
X8175D02*
D03*
X7921Y9475D02*
D03*
X8175D02*
D03*
X7921Y9221D02*
D03*
X8175D02*
D03*
X7921Y8967D02*
D03*
X8175D02*
D03*
X7921Y8713D02*
D03*
X8175D02*
D03*
X7921Y8459D02*
D03*
X8175D02*
D03*
X7921Y8205D02*
D03*
X8175D02*
D03*
X7921Y7951D02*
D03*
X8175D02*
D03*
X7921Y7697D02*
D03*
X8175D02*
D03*
X7921Y7443D02*
D03*
X8175D02*
D03*
X7921Y7189D02*
D03*
X8175D02*
D03*
X7921Y6935D02*
D03*
X8175D02*
D03*
X7921Y6681D02*
D03*
X8175D02*
D03*
X7921Y6427D02*
D03*
X8175D02*
D03*
X7921Y6173D02*
D03*
X8175D02*
D03*
X7921Y5919D02*
D03*
X8175D02*
D03*
X7921Y5665D02*
D03*
X8175D02*
D03*
X7921Y5411D02*
D03*
X8175D02*
D03*
X7921Y5157D02*
D03*
X8175D02*
D03*
X7921Y4903D02*
D03*
X8175D02*
D03*
X7921Y4649D02*
D03*
X8175D02*
D03*
X7921Y4395D02*
D03*
X8175D02*
D03*
X7921Y4141D02*
D03*
X8175D02*
D03*
X7921Y3887D02*
D03*
X8175D02*
D03*
X7921Y3633D02*
D03*
X8175D02*
D03*
X7921Y3379D02*
D03*
X8175D02*
D03*
X7921Y3125D02*
D03*
X8175D02*
D03*
X7921Y2871D02*
D03*
X8175D02*
D03*
X7921Y2617D02*
D03*
X8175D02*
D03*
X7921Y2363D02*
D03*
X8175D02*
D03*
X7921Y2109D02*
D03*
X8175D02*
D03*
X7921Y1855D02*
D03*
X8175D02*
D03*
X7921Y1601D02*
D03*
X8175D02*
D03*
D20*
X2714Y3254D02*
D03*
X7286D02*
D03*
X7413Y10747D02*
D03*
X5889Y5667D02*
D03*
X2587Y10874D02*
D03*
D21*
X700Y3825D02*
D03*
Y4175D02*
D03*
Y12875D02*
D03*
Y12525D02*
D03*
Y10800D02*
D03*
Y11150D02*
D03*
D22*
X9095Y5289D02*
D03*
Y5035D02*
D03*
Y4781D02*
D03*
Y4527D02*
D03*
Y4019D02*
D03*
Y3765D02*
D03*
D23*
Y3511D02*
D03*
D24*
X9377Y7000D02*
D03*
D25*
X9123D02*
D03*
D26*
X9150Y9108D02*
D03*
Y8854D02*
D03*
Y8600D02*
D03*
Y7838D02*
D03*
Y8092D02*
D03*
Y8346D02*
D03*
D27*
X250Y14750D02*
D03*
X9750D02*
D03*
Y250D02*
D03*
X250D02*
D03*
D28*
X3777Y14250D02*
D03*
X3638Y14534D02*
D03*
X3500Y14250D02*
D03*
X3362Y14534D02*
D03*
X3223Y14250D02*
D03*
X3084Y14534D02*
D03*
X2946Y14250D02*
D03*
X2808Y14534D02*
D03*
X6384Y14542D02*
D03*
X6522Y14258D02*
D03*
X6661Y14542D02*
D03*
X6800Y14258D02*
D03*
X6938Y14542D02*
D03*
X7076Y14258D02*
D03*
X7215Y14542D02*
D03*
X7354Y14258D02*
D03*
D29*
X2669Y14250D02*
D03*
X6246Y14258D02*
D03*
D30*
X4472Y14392D02*
D03*
X1974D02*
D03*
X5550Y14400D02*
D03*
X8049D02*
D03*
D31*
X700Y7050D02*
D03*
Y8850D02*
D03*
D32*
Y6850D02*
D03*
Y6650D02*
D03*
Y8650D02*
D03*
Y8450D02*
D03*
D33*
X9200Y10950D02*
D03*
Y10442D02*
D03*
Y10696D02*
D03*
D34*
X9250Y1740D02*
D03*
D35*
Y1240D02*
D03*
D36*
X1250Y1400D02*
D03*
X9050Y13200D02*
D03*
M02*
