G04*
G04 #@! TF.GenerationSoftware,Altium Limited,Altium Designer,22.8.2 (66)*
G04*
G04 Layer_Physical_Order=1*
G04 Layer_Color=255*
%FSLAX42Y42*%
%MOMM*%
G71*
G04*
G04 #@! TF.SameCoordinates,8E390A5F-EF31-4BF6-9372-B9111DFB767B*
G04*
G04*
G04 #@! TF.FilePolarity,Positive*
G04*
G01*
G75*
%ADD14R,1.13X1.77*%
G04:AMPARAMS|DCode=15|XSize=1.97mm|YSize=0.6mm|CornerRadius=0.08mm|HoleSize=0mm|Usage=FLASHONLY|Rotation=0.000|XOffset=0mm|YOffset=0mm|HoleType=Round|Shape=RoundedRectangle|*
%AMROUNDEDRECTD15*
21,1,1.97,0.45,0,0,0.0*
21,1,1.82,0.60,0,0,0.0*
1,1,0.15,0.91,-0.23*
1,1,0.15,-0.91,-0.23*
1,1,0.15,-0.91,0.23*
1,1,0.15,0.91,0.23*
%
%ADD15ROUNDEDRECTD15*%
%ADD37C,0.50*%
%ADD38C,0.35*%
%ADD39R,1.53X1.53*%
%ADD40C,1.53*%
%ADD41C,3.20*%
%ADD42C,1.95*%
%ADD43C,1.51*%
%ADD44R,1.51X1.51*%
%ADD45R,1.21X1.21*%
%ADD46C,1.21*%
%ADD47C,1.65*%
%ADD48C,3.00*%
%ADD49C,1.58*%
%ADD50R,1.58X1.58*%
%ADD51C,4.12*%
%ADD52R,1.32X1.32*%
%ADD53C,1.32*%
%ADD54C,1.68*%
%ADD55C,4.00*%
%ADD56R,4.00X4.00*%
%ADD57C,1.27*%
D14*
X9103Y6200D02*
D03*
X9397D02*
D03*
X850Y9700D02*
D03*
X556D02*
D03*
X503Y5100D02*
D03*
X797D02*
D03*
X9347Y11950D02*
D03*
X9053D02*
D03*
Y13500D02*
D03*
X9347D02*
D03*
D15*
X9547Y12890D02*
D03*
Y12764D02*
D03*
Y12636D02*
D03*
Y12510D02*
D03*
X9053D02*
D03*
Y12636D02*
D03*
Y12764D02*
D03*
Y12890D02*
D03*
D37*
X2265Y8715D02*
X2300Y8750D01*
Y8900D01*
X2242Y8842D02*
X2300Y8900D01*
Y12500D02*
X2436Y12636D01*
X2300Y8900D02*
Y12500D01*
X300Y5100D02*
X503D01*
X200Y5200D02*
Y6550D01*
Y5200D02*
X300Y5100D01*
X200Y6550D02*
X300Y6650D01*
X700D01*
X797Y5100D02*
X1200D01*
X1250Y5150D01*
Y6800D01*
X1200Y6850D02*
X1250Y6800D01*
X700Y6850D02*
X1200D01*
X8846Y8854D02*
X9150D01*
X8750Y8950D02*
Y10200D01*
Y8950D02*
X8846Y8854D01*
X8713Y10237D02*
X8750Y10200D01*
Y8250D02*
X8846Y8346D01*
X8750Y6150D02*
X8750Y8250D01*
X8750Y4850D02*
X8750Y6150D01*
X8800Y6200D01*
X9103D01*
X8750Y4850D02*
Y4850D01*
X8819Y4781D02*
X9095D01*
X8750Y4850D02*
X8819Y4781D01*
X9600Y1290D02*
Y3700D01*
X9095Y3765D02*
X9535D01*
X9600Y3700D01*
X9550Y1240D02*
X9600Y1290D01*
X9106Y3500D02*
X9200D01*
X9095Y3511D02*
X9106Y3500D01*
X9200D02*
X9250Y3450D01*
Y1740D02*
Y3450D01*
X9397Y6200D02*
Y6978D01*
X700Y8842D02*
X2242Y8842D01*
X8846Y8346D02*
X9150D01*
X850Y9700D02*
X1300D01*
X1400Y9800D02*
Y11050D01*
X1300Y9700D02*
X1400Y9800D01*
X1300Y11150D02*
X1400Y11050D01*
X700Y11150D02*
X1300D01*
X350Y9700D02*
X550D01*
X250Y9600D02*
X350Y9700D01*
X700Y8650D02*
X1300D01*
X1400Y5250D02*
X1491Y5159D01*
X1300Y8650D02*
X1400Y8550D01*
X1491Y5159D02*
X1825D01*
X1400Y5250D02*
Y8550D01*
X1250Y1400D02*
X7550Y1400D01*
X8175Y10237D02*
X8713D01*
X2436Y12636D02*
X9053D01*
X250Y7150D02*
Y9600D01*
Y7150D02*
X350Y7050D01*
X700D01*
X7550Y1400D02*
X7650Y1500D01*
Y2800D01*
X7721Y2871D01*
X7921D01*
X9053Y13203D02*
Y13500D01*
X2079Y8715D02*
X2265D01*
X9900Y12050D02*
Y12750D01*
X9800Y11950D02*
X9900Y12050D01*
X9347Y11950D02*
X9800D01*
X9250Y1240D02*
X9550D01*
X9250D02*
X9256Y1246D01*
X8800Y11050D02*
X8900Y10950D01*
X8800Y11050D02*
Y11850D01*
X8900Y10950D02*
X9200D01*
X8800Y11850D02*
X8900Y11950D01*
X9053D01*
X8836Y12764D02*
X9053D01*
X8750Y12850D02*
Y13400D01*
Y12850D02*
X8836Y12764D01*
X8750Y13400D02*
X8850Y13500D01*
X9053D01*
X9550Y12893D02*
Y13450D01*
X9547Y12890D02*
X9550Y12893D01*
X9500Y13500D02*
X9550Y13450D01*
X9347Y13500D02*
X9500D01*
X6522Y14127D02*
Y14258D01*
Y14127D02*
X6600Y14050D01*
X9750D01*
X9900Y12750D02*
Y13900D01*
X9547Y12636D02*
X9786D01*
X9900Y12750D01*
X9750Y14050D02*
X9900Y13900D01*
X9800Y12800D02*
Y13850D01*
X9547Y12764D02*
X9764D01*
X9800Y12800D01*
X9700Y13950D02*
X9800Y13850D01*
X6150Y13950D02*
X9700D01*
X6150D02*
X6246Y14046D01*
Y14258D01*
X2750Y13950D02*
X6150D01*
X2669Y14031D02*
X2750Y13950D01*
X2669Y14031D02*
Y14250D01*
D38*
X2600Y4070D02*
Y6600D01*
X2550Y4020D02*
X2600Y4070D01*
X740Y4020D02*
X2550D01*
X752Y4532D02*
X2432D01*
X710Y4185D02*
Y4490D01*
X752Y4532D01*
X710Y3835D02*
Y3990D01*
X740Y4020D01*
X700Y3825D02*
X710Y3835D01*
X2600Y6600D02*
X2681Y6681D01*
X7921D01*
X700Y4175D02*
X710Y4185D01*
X2432Y4532D02*
X2500Y4600D01*
Y7100D01*
X2589Y7189D01*
X7921D01*
X7766Y8587D02*
X9150Y8587D01*
X7700Y8250D02*
X7745Y8205D01*
X7921D01*
X7700Y8250D02*
Y8521D01*
X7766Y8587D01*
D39*
X1825Y10493D02*
D03*
X7921Y10491D02*
D03*
D40*
X2079Y10493D02*
D03*
X1825Y10239D02*
D03*
X2079D02*
D03*
X1825Y9985D02*
D03*
X2079D02*
D03*
X1825Y9731D02*
D03*
X2079D02*
D03*
X1825Y9477D02*
D03*
X2079D02*
D03*
X1825Y9223D02*
D03*
X2079D02*
D03*
X1825Y8969D02*
D03*
X2079D02*
D03*
X1825Y8715D02*
D03*
X2079D02*
D03*
X1825Y8461D02*
D03*
X2079D02*
D03*
X1825Y8207D02*
D03*
X2079D02*
D03*
X1825Y7953D02*
D03*
X2079D02*
D03*
X1825Y7699D02*
D03*
X2079D02*
D03*
X1825Y7445D02*
D03*
X2079D02*
D03*
X1825Y7191D02*
D03*
X2079D02*
D03*
X1825Y6937D02*
D03*
X2079D02*
D03*
X1825Y6683D02*
D03*
X2079D02*
D03*
X1825Y6429D02*
D03*
X2079D02*
D03*
X1825Y6175D02*
D03*
X2079D02*
D03*
X1825Y5921D02*
D03*
X2079D02*
D03*
X1825Y5667D02*
D03*
X2079D02*
D03*
X1825Y5413D02*
D03*
X2079D02*
D03*
X1825Y5159D02*
D03*
X2079D02*
D03*
X1825Y4905D02*
D03*
X2079D02*
D03*
X1825Y4651D02*
D03*
X2079D02*
D03*
X1825Y4397D02*
D03*
X2079D02*
D03*
X1825Y4143D02*
D03*
X2079D02*
D03*
X1825Y3889D02*
D03*
X2079D02*
D03*
X1825Y3635D02*
D03*
X2079D02*
D03*
X1825Y3381D02*
D03*
X2079D02*
D03*
X1825Y3127D02*
D03*
X2079D02*
D03*
X1825Y2873D02*
D03*
X2079D02*
D03*
X1825Y2619D02*
D03*
X2079D02*
D03*
X1825Y2365D02*
D03*
X2079D02*
D03*
X1825Y2111D02*
D03*
X2079D02*
D03*
X1825Y1857D02*
D03*
X2079D02*
D03*
X8175Y10491D02*
D03*
X1825Y1603D02*
D03*
X2079D02*
D03*
X7921Y10237D02*
D03*
X8175D02*
D03*
X7921Y9983D02*
D03*
X8175D02*
D03*
X7921Y9729D02*
D03*
X8175D02*
D03*
X7921Y9475D02*
D03*
X8175D02*
D03*
X7921Y9221D02*
D03*
X8175D02*
D03*
X7921Y8967D02*
D03*
X8175D02*
D03*
X7921Y8713D02*
D03*
X8175D02*
D03*
X7921Y8459D02*
D03*
X8175D02*
D03*
X7921Y8205D02*
D03*
X8175D02*
D03*
X7921Y7951D02*
D03*
X8175D02*
D03*
X7921Y7697D02*
D03*
X8175D02*
D03*
X7921Y7443D02*
D03*
X8175D02*
D03*
X7921Y7189D02*
D03*
X8175D02*
D03*
X7921Y6935D02*
D03*
X8175D02*
D03*
X7921Y6681D02*
D03*
X8175D02*
D03*
X7921Y6427D02*
D03*
X8175D02*
D03*
X7921Y6173D02*
D03*
X8175D02*
D03*
X7921Y5919D02*
D03*
X8175D02*
D03*
X7921Y5665D02*
D03*
X8175D02*
D03*
X7921Y5411D02*
D03*
X8175D02*
D03*
X7921Y5157D02*
D03*
X8175D02*
D03*
X7921Y4903D02*
D03*
X8175D02*
D03*
X7921Y4649D02*
D03*
X8175D02*
D03*
X7921Y4395D02*
D03*
X8175D02*
D03*
X7921Y4141D02*
D03*
X8175D02*
D03*
X7921Y3887D02*
D03*
X8175D02*
D03*
X7921Y3633D02*
D03*
X8175D02*
D03*
X7921Y3379D02*
D03*
X8175D02*
D03*
X7921Y3125D02*
D03*
X8175D02*
D03*
X7921Y2871D02*
D03*
X8175D02*
D03*
X7921Y2617D02*
D03*
X8175D02*
D03*
X7921Y2363D02*
D03*
X8175D02*
D03*
X7921Y2109D02*
D03*
X8175D02*
D03*
X7921Y1855D02*
D03*
X8175D02*
D03*
X7921Y1601D02*
D03*
X8175D02*
D03*
D41*
X2714Y3254D02*
D03*
X7286D02*
D03*
X7413Y10747D02*
D03*
X5889Y5667D02*
D03*
X2587Y10874D02*
D03*
D42*
X700Y3825D02*
D03*
Y4175D02*
D03*
Y12875D02*
D03*
Y12525D02*
D03*
Y10800D02*
D03*
Y11150D02*
D03*
D43*
X9095Y5289D02*
D03*
Y5035D02*
D03*
Y4781D02*
D03*
Y4527D02*
D03*
Y4019D02*
D03*
Y3765D02*
D03*
D44*
Y3511D02*
D03*
D45*
X9377Y7000D02*
D03*
D46*
X9123D02*
D03*
D47*
X9150Y9108D02*
D03*
Y8854D02*
D03*
Y8600D02*
D03*
Y7838D02*
D03*
Y8092D02*
D03*
Y8346D02*
D03*
D48*
X250Y14750D02*
D03*
X9750D02*
D03*
Y250D02*
D03*
X250D02*
D03*
D49*
X3777Y14250D02*
D03*
X3638Y14534D02*
D03*
X3500Y14250D02*
D03*
X3362Y14534D02*
D03*
X3223Y14250D02*
D03*
X3084Y14534D02*
D03*
X2946Y14250D02*
D03*
X2808Y14534D02*
D03*
X6384Y14542D02*
D03*
X6522Y14258D02*
D03*
X6661Y14542D02*
D03*
X6800Y14258D02*
D03*
X6938Y14542D02*
D03*
X7076Y14258D02*
D03*
X7215Y14542D02*
D03*
X7354Y14258D02*
D03*
D50*
X2669Y14250D02*
D03*
X6246Y14258D02*
D03*
D51*
X4472Y14392D02*
D03*
X1974D02*
D03*
X5550Y14400D02*
D03*
X8049D02*
D03*
D52*
X700Y7050D02*
D03*
Y8850D02*
D03*
D53*
Y6850D02*
D03*
Y6650D02*
D03*
Y8650D02*
D03*
Y8450D02*
D03*
D54*
X9200Y10950D02*
D03*
Y10442D02*
D03*
Y10696D02*
D03*
D55*
X9250Y1740D02*
D03*
D56*
Y1240D02*
D03*
D57*
X1250Y1400D02*
D03*
X9050Y13200D02*
D03*
M02*
